<mxfile host="app.diagrams.net" modified="2024-04-09T19:51:24.472Z" agent="Mozilla/5.0 (Windows NT 10.0; Win64; x64) AppleWebKit/537.36 (KHTML, like Gecko) Chrome/123.0.0.0 Safari/537.36" etag="rid_F8fe1hvhqjhsvj3u" version="24.2.3" type="device">
  <diagram name="Page-1" id="QWNOjtZL_6b9BA27r8h9">
    <mxGraphModel dx="1247" dy="671" grid="1" gridSize="10" guides="1" tooltips="1" connect="1" arrows="1" fold="1" page="1" pageScale="1" pageWidth="850" pageHeight="1100" math="0" shadow="0">
      <root>
        <mxCell id="0" />
        <mxCell id="1" parent="0" />
        <mxCell id="SigddhHKJZCSWALSGLOn-1" value="" style="rounded=0;whiteSpace=wrap;html=1;" vertex="1" parent="1">
          <mxGeometry x="120" y="30" width="610" height="120" as="geometry" />
        </mxCell>
        <mxCell id="SigddhHKJZCSWALSGLOn-2" value="" style="rounded=0;whiteSpace=wrap;html=1;" vertex="1" parent="1">
          <mxGeometry x="60" y="170" width="730" height="300" as="geometry" />
        </mxCell>
        <mxCell id="SigddhHKJZCSWALSGLOn-3" value="" style="rounded=1;whiteSpace=wrap;html=1;" vertex="1" parent="1">
          <mxGeometry x="250" y="60" width="95" height="30" as="geometry" />
        </mxCell>
        <mxCell id="SigddhHKJZCSWALSGLOn-4" value="" style="rounded=1;whiteSpace=wrap;html=1;" vertex="1" parent="1">
          <mxGeometry x="360" y="60" width="95" height="30" as="geometry" />
        </mxCell>
        <mxCell id="SigddhHKJZCSWALSGLOn-5" value="" style="rounded=1;whiteSpace=wrap;html=1;" vertex="1" parent="1">
          <mxGeometry x="470" y="60" width="95" height="30" as="geometry" />
        </mxCell>
        <mxCell id="SigddhHKJZCSWALSGLOn-6" value="" style="rounded=1;whiteSpace=wrap;html=1;" vertex="1" parent="1">
          <mxGeometry x="580" y="60" width="95" height="30" as="geometry" />
        </mxCell>
        <mxCell id="SigddhHKJZCSWALSGLOn-7" value="home" style="text;html=1;align=center;verticalAlign=middle;whiteSpace=wrap;rounded=0;" vertex="1" parent="1">
          <mxGeometry x="267.5" y="60" width="60" height="30" as="geometry" />
        </mxCell>
        <mxCell id="SigddhHKJZCSWALSGLOn-8" value="about us" style="text;html=1;align=center;verticalAlign=middle;whiteSpace=wrap;rounded=0;" vertex="1" parent="1">
          <mxGeometry x="377.5" y="60" width="60" height="30" as="geometry" />
        </mxCell>
        <mxCell id="SigddhHKJZCSWALSGLOn-9" value="trips" style="text;html=1;align=center;verticalAlign=middle;whiteSpace=wrap;rounded=0;" vertex="1" parent="1">
          <mxGeometry x="487.5" y="60" width="60" height="30" as="geometry" />
        </mxCell>
        <mxCell id="SigddhHKJZCSWALSGLOn-10" value="contacts" style="text;html=1;align=center;verticalAlign=middle;whiteSpace=wrap;rounded=0;" vertex="1" parent="1">
          <mxGeometry x="597.5" y="60" width="60" height="30" as="geometry" />
        </mxCell>
        <mxCell id="SigddhHKJZCSWALSGLOn-11" value="Welcome to White Water River Adventure" style="text;html=1;align=center;verticalAlign=middle;whiteSpace=wrap;rounded=0;fontSize=25;" vertex="1" parent="1">
          <mxGeometry x="276.25" y="210" width="313.75" height="100" as="geometry" />
        </mxCell>
        <mxCell id="SigddhHKJZCSWALSGLOn-14" value="Subscribe to our monthly newsletter!" style="text;html=1;align=center;verticalAlign=middle;whiteSpace=wrap;rounded=0;fontSize=18;" vertex="1" parent="1">
          <mxGeometry x="250.63" y="480" width="365" height="40" as="geometry" />
        </mxCell>
        <mxCell id="SigddhHKJZCSWALSGLOn-23" value="" style="rounded=0;whiteSpace=wrap;html=1;" vertex="1" parent="1">
          <mxGeometry y="1040" width="850" height="60" as="geometry" />
        </mxCell>
        <mxCell id="SigddhHKJZCSWALSGLOn-24" value="Footer content including social media icons" style="text;html=1;align=center;verticalAlign=middle;whiteSpace=wrap;rounded=0;fontSize=22;" vertex="1" parent="1">
          <mxGeometry x="260" y="1055" width="330" height="30" as="geometry" />
        </mxCell>
        <mxCell id="SigddhHKJZCSWALSGLOn-26" value="" style="rounded=1;whiteSpace=wrap;html=1;" vertex="1" parent="1">
          <mxGeometry x="146" y="530" width="556" height="210" as="geometry" />
        </mxCell>
        <mxCell id="SigddhHKJZCSWALSGLOn-28" value="Client information" style="text;html=1;align=center;verticalAlign=middle;whiteSpace=wrap;rounded=0;" vertex="1" parent="1">
          <mxGeometry x="168.12" y="550" width="123.75" height="40" as="geometry" />
        </mxCell>
        <mxCell id="SigddhHKJZCSWALSGLOn-29" value="" style="rounded=1;whiteSpace=wrap;html=1;" vertex="1" parent="1">
          <mxGeometry x="178" y="620" width="492" height="30" as="geometry" />
        </mxCell>
        <mxCell id="SigddhHKJZCSWALSGLOn-30" value="" style="rounded=1;whiteSpace=wrap;html=1;" vertex="1" parent="1">
          <mxGeometry x="178" y="690" width="492" height="30" as="geometry" />
        </mxCell>
        <mxCell id="SigddhHKJZCSWALSGLOn-31" value="Full Name:" style="text;html=1;align=center;verticalAlign=middle;whiteSpace=wrap;rounded=0;" vertex="1" parent="1">
          <mxGeometry x="177.5" y="590" width="90" height="30" as="geometry" />
        </mxCell>
        <mxCell id="SigddhHKJZCSWALSGLOn-32" value="Email:" style="text;html=1;align=center;verticalAlign=middle;whiteSpace=wrap;rounded=0;" vertex="1" parent="1">
          <mxGeometry x="178" y="660" width="90" height="30" as="geometry" />
        </mxCell>
        <mxCell id="SigddhHKJZCSWALSGLOn-33" value="WHITE WATER RIVER ADVENTURES" style="text;html=1;align=center;verticalAlign=middle;whiteSpace=wrap;rounded=0;fontSize=16;" vertex="1" parent="1">
          <mxGeometry x="291.88" y="760" width="282.5" height="30" as="geometry" />
        </mxCell>
        <mxCell id="SigddhHKJZCSWALSGLOn-38" value="" style="whiteSpace=wrap;html=1;aspect=fixed;" vertex="1" parent="1">
          <mxGeometry x="192.51" y="810" width="99.37" height="99.37" as="geometry" />
        </mxCell>
        <mxCell id="SigddhHKJZCSWALSGLOn-39" value="" style="whiteSpace=wrap;html=1;aspect=fixed;" vertex="1" parent="1">
          <mxGeometry x="190" y="920" width="101.88" height="101.88" as="geometry" />
        </mxCell>
        <mxCell id="SigddhHKJZCSWALSGLOn-40" value="&lt;h1 style=&quot;margin-top: 0px;&quot;&gt;Heading&lt;/h1&gt;&lt;p&gt;Lorem ipsum dolor sit amet, consectetur adipisicing elit, sed do eiusmod tempor incididunt ut labore et dolore magna aliqua.&lt;/p&gt;" style="text;html=1;whiteSpace=wrap;overflow=hidden;rounded=0;" vertex="1" parent="1">
          <mxGeometry x="370" y="810" width="280" height="190" as="geometry" />
        </mxCell>
      </root>
    </mxGraphModel>
  </diagram>
</mxfile>
